:SAMPLES-PER-SECOND 30
:FRAME-RANGE 1-2775
:FULLY-SPECIFIED
:DEGREES
1908
root  47.2594 39.8628 -20.3945 2.16233 -50.8484 0.015625
RightUpLeg  -6.99664 -3.24895 -2.0194
RightLeg  14.8818 -4.4854 -1.57693
RightFoot  -9.71128 -0.131464 4.60113
RightToes  1.218e-010 1.26228e-014 -6.01869e-014
Spine  -8.44328 2.81419 7.33283
Spine1  9.37477 4.86135 -9.47465
HEad  1.45009 0.97347 6.12452
LeftShoulder1  2.10013 -4.93735 -19.2244
LeftArm  4.61361 -3.49057 -53.9119
LeftForeArm  35.7941 -5.56028 -12.6226
LeftHand  -0.0267974 5.30674 6.19254
RightShoulder  0.00342724 2.94232 -9.68206
RightArm  -95.6375 67.5557 -7.56016
RightForeArm  57.1185 41.3988 6.32398
RightHand  -0.0287083 -5.28191 -38.2923
LeftUpLeg  -7.37435 -0.838102 7.56436
LeftLeg  12.1639 -15.1829 -1.18668
LeftFoot  -13.4671 -0.054384 -7.26809
LeftToes  5.08156e-010 -6.90346e-011 -6.33378e-011
1909
root  47.1761 39.8827 -20.4271 2.23694 -51.1027 0.0599365
RightUpLeg  -6.93061 -3.37917 -1.94387
RightLeg  14.5708 -4.15353 -1.4333
RightFoot  -9.63177 -0.131081 4.39816
RightToes  1.218e-010 1.26228e-014 -6.01869e-014
Spine  -8.24773 3.14427 7.62516
Spine1  9.09687 5.15344 -9.45274
HEad  1.83034 0.706262 6.08639
LeftShoulder1  2.09336 -4.86767 -19.3691
LeftArm  5.82177 -2.93638 -54.5458
LeftForeArm  36.41 -6.11845 -12.61
LeftHand  -0.0215208 5.41505 6.18195
RightShoulder  0.0238396 3.00213 -9.30612
RightArm  -101.168 68.9813 -5.67794
RightForeArm  42.2762 42.7291 7.54401
RightHand  -0.104276 -5.05254 -36.9542
LeftUpLeg  -7.27291 -2.10991 6.88424
LeftLeg  11.9791 -19.9659 -1.64987
LeftFoot  -13.7031 -0.0648892 -7.11963
LeftToes  5.08156e-010 -6.90346e-011 -6.33378e-011
1910
root  47.132 39.8855 -20.4247 2.59563 -51.4105 -0.277893
RightUpLeg  -6.86235 -3.46254 -1.6821
RightLeg  14.2511 -3.84616 -1.29479
RightFoot  -9.52117 -0.136313 4.50674
RightToes  1.218e-010 1.26228e-014 -6.01869e-014
Spine  -7.96415 3.4071 7.9513
Spine1  8.74856 5.28749 -9.00014
HEad  2.09638 0.691547 6.06205
LeftShoulder1  2.07192 -4.83849 -19.1842
LeftArm  5.86468 -2.1882 -55.1794
LeftForeArm  37.6851 -5.72045 -12.7431
LeftHand  -0.0160165 5.52935 6.15161
RightShoulder  0.0521467 2.9392 -8.78252
RightArm  -99.5659 69.5314 -4.74656
RightForeArm  43.1441 44.3594 8.01115
RightHand  0.3724 -6.54846 -35.5973
LeftUpLeg  -7.23249 -4.19016 6.63199
LeftLeg  12.0955 -22.3302 -1.82088
LeftFoot  -13.1512 -0.0292144 -6.82727
LeftToes  5.08156e-010 -6.90346e-011 -6.33378e-011
1911
root  47.1186 39.8789 -20.3811 3.13946 -51.8132 -0.881653
RightUpLeg  -6.79463 -3.38502 -1.36328
RightLeg  13.9917 -3.46246 -1.15234
RightFoot  -9.45961 -0.130931 4.0584
RightToes  1.218e-010 1.26228e-014 -6.01869e-014
Spine  -7.9127 3.49921 8.4516
Spine1  8.75381 5.27034 -8.61779
HEad  2.21874 1.31561 6.10607
LeftShoulder1  2.02409 -4.7174 -18.9552
LeftArm  4.93304 -1.20638 -55.3342
LeftForeArm  38.9685 -5.11197 -12.788
LeftHand  -0.00546321 5.78076 5.7874
RightShoulder  0.0727009 3.1335 -8.43293
RightArm  -91.1439 69.0465 -4.58619
RightForeArm  50.7968 44.8668 7.71235
RightHand  0.166945 -5.88434 -36.4529
LeftUpLeg  -7.25663 -3.92035 6.97502
LeftLeg  11.9246 -22.7471 -2.00364
LeftFoot  -11.1306 0.0790364 -6.74263
LeftToes  5.08156e-010 -6.90346e-011 -6.33378e-011
1912
root  47.114 39.8889 -20.3149 3.70642 -52.0813 -1.46347
RightUpLeg  -6.62127 -3.31782 -1.02776
RightLeg  13.4496 -3.44483 -1.08049
RightFoot  -9.17331 -0.145872 4.41286
RightToes  1.218e-010 1.26228e-014 -6.01869e-014
Spine  -8.05198 3.4114 8.79555
Spine1  8.9988 5.08617 -8.29343
HEad  2.01386 2.01092 6.12894
LeftShoulder1  1.96623 -4.47984 -18.9833
LeftArm  4.14425 -0.121462 -54.8563
LeftForeArm  39.8855 -4.58986 -12.8146
LeftHand  -0.00521527 5.82726 5.40912
RightShoulder  0.0768981 3.36736 -8.39415
RightArm  -81.8667 68.1085 -3.7415
RightForeArm  61.7295 47.3839 7.94157
RightHand  6.37305e-005 -5.36762 -37.5966
LeftUpLeg  -7.21049 -2.26508 7.4823
LeftLeg  11.7219 -23.8663 -2.50735
LeftFoot  -10.2827 0.120925 -6.42048
LeftToes  5.08156e-010 -6.90346e-011 -6.33378e-011
1913
root  47.0973 39.8981 -20.2224 3.86085 -52.5569 -1.63541
RightUpLeg  -6.41501 -3.32239 -1.04076
RightLeg  13.1003 -3.03374 -0.953312
RightFoot  -9.07955 -0.151685 4.55593
RightToes  1.218e-010 1.26228e-014 -6.01869e-014
Spine  -8.36732 3.42381 8.81109
Spine1  9.55302 5.03116 -7.91348
HEad  1.53485 2.61959 6.06847
LeftShoulder1  1.93208 -4.29935 -19.1448
LeftArm  3.31381 0.972648 -54.0593
LeftForeArm  40.5512 -3.74825 -12.9187
LeftHand  -0.00168413 5.89999 5.49486
RightShoulder  0.0974013 3.4824 -8.06296
RightArm  -78.2602 68.0221 -3.41561
RightForeArm  78.6881 49.8699 8.0453
RightHand  0.451767 -6.54432 -42.0966
LeftUpLeg  -6.80794 -1.10958 7.61684
LeftLeg  11.2818 -24.604 -2.61562
LeftFoot  -10.2007 0.127731 -6.69204
LeftToes  5.08156e-010 -6.90346e-011 -6.33378e-011
1914
root  47.0966 39.8962 -20.143 4.10672 -52.9958 -1.87491
RightUpLeg  -6.42229 -3.05172 -0.961012
RightLeg  13.0436 -2.87749 -0.97684
RightFoot  -9.10485 -0.149519 4.48802
RightToes  1.218e-010 1.26228e-014 -6.01869e-014
Spine  -8.36045 3.46848 8.88073
Spine1  9.6538 5.02849 -7.71044
HEad  1.11592 2.91542 5.81655
LeftShoulder1  1.9082 -4.21857 -19.0965
LeftArm  1.81396 2.13731 -53.4185
LeftForeArm  41.1864 -2.30536 -12.9928
LeftHand  0.00356983 6.0181 5.52569
RightShoulder  0.121124 3.55426 -7.67836
RightArm  -78.7689 68.3668 -2.76218
RightForeArm  83.3433 50.6291 8.15871
RightHand  0.353589 -6.25862 -43.1792
LeftUpLeg  -6.73556 -0.781187 7.74665
LeftLeg  11.3546 -24.5644 -2.79151
LeftFoot  -10.1247 0.13038 -6.56577
LeftToes  5.08156e-010 -6.90346e-011 -6.33378e-011
1915
root  47.1028 39.8834 -20.0582 3.98881 -53.5025 -1.79675
RightUpLeg  -6.53218 -2.53507 -1.0518
RightLeg  13.4141 -2.90062 -1.16053
RightFoot  -9.24626 -0.147838 4.64642
RightToes  1.218e-010 1.26228e-014 -6.01869e-014
Spine  -7.97087 3.59598 8.95741
Spine1  9.43724 5.21071 -7.84034
HEad  1.0754 3.06286 5.96498
LeftShoulder1  1.89523 -4.14625 -19.174
LeftArm  0.676495 3.16467 -52.4716
LeftForeArm  41.4705 -0.804317 -13.0325
LeftHand  0.00221359 6.0415 5.17797
RightShoulder  0.138064 3.48528 -7.37341
RightArm  -81.3153 68.97 -0.492084
RightForeArm  70.8228 49.3734 8.19039
RightHand  0.251711 -6.03729 -41.1751
LeftUpLeg  -6.62216 -1.68456 7.46702
LeftLeg  11.5729 -23.1349 -2.55716
LeftFoot  -10.0802 0.126465 -6.00237
LeftToes  5.08156e-010 -6.90346e-011 -6.33378e-011
1916
root  47.1131 39.8618 -20.0431 4.56361 -53.2611 -2.24133
RightUpLeg  -6.84008 -2.35891 -0.757158
RightLeg  13.6089 -3.33392 -1.26021
RightFoot  -9.24352 -0.147726 4.63526
RightToes  1.218e-010 1.26228e-014 -6.01869e-014
Spine  -7.56771 3.45959 8.94863
Spine1  8.84033 5.01065 -7.7216
HEad  1.16583 3.04007 5.85372
LeftShoulder1  1.89492 -4.1046 -19.3234
LeftArm  -0.197439 4.26574 -51.4305
LeftForeArm  41.3889 0.481454 -13.0234
LeftHand  0.00621311 6.17078 5.03049
RightShoulder  0.150136 3.43848 -7.15306
RightArm  -85.9829 70.0273 2.38297
RightForeArm  54.7946 47.8546 8.49268
RightHand  -0.328084 -4.43071 -39.2523
LeftUpLeg  -7.26186 -3.21858 7.69578
LeftLeg  12.2534 -21.7788 -2.54065
LeftFoot  -10.2634 0.11705 -5.9054
LeftToes  5.08156e-010 -6.90346e-011 -6.33378e-011
1917
root  47.0965 39.856 -20.009 4.79322 -53.0591 -2.34048
RightUpLeg  -6.90441 -2.49906 -0.729901
RightLeg  13.5785 -3.37834 -1.23378
RightFoot  -9.34011 -0.142202 4.50597
RightToes  1.218e-010 1.26228e-014 -6.01869e-014
Spine  -7.46093 3.46614 8.77166
Spine1  8.75064 4.97833 -7.51058
HEad  1.18627 2.81354 5.70124
LeftShoulder1  1.91028 -4.13294 -19.4409
LeftArm  -0.639151 5.24652 -50.4871
LeftForeArm  40.9611 1.51001 -13.0404
LeftHand  0.00345488 6.11842 4.92022
RightShoulder  0.16793 3.37559 -6.825
RightArm  -88.8365 70.6183 4.38699
RightForeArm  44.1269 48.6559 9.47455
RightHand  0.142235 -5.78829 -37.7715
LeftUpLeg  -7.5109 -3.98425 7.70684
LeftLeg  12.4202 -21.1512 -2.44064
LeftFoot  -10.292 0.111014 -5.72649
LeftToes  5.08156e-010 -6.90346e-011 -6.33378e-011
1918
root  47.0841 39.8634 -19.9654 4.92314 -52.6831 -2.34033
RightUpLeg  -6.73516 -3.05846 -0.855002
RightLeg  13.1582 -3.18446 -1.02298
RightFoot  -9.26212 -0.150274 4.8096
RightToes  1.218e-010 1.26228e-014 -6.01869e-014
Spine  -7.1976 3.36067 8.57204
Spine1  8.43921 4.83228 -7.34129
HEad  1.23672 2.8335 5.34147
LeftShoulder1  1.89371 -4.04026 -19.5464
LeftArm  -0.49834 6.50797 -49.596
LeftForeArm  39.9616 1.97524 -13.1768
LeftHand  -0.00306375 6.1312 4.8596
RightShoulder  0.197611 3.32058 -6.28752
RightArm  -87.5059 70.7177 5.26055
RightForeArm  43.8062 49.5808 9.86164
RightHand  0.389621 -6.60069 -35.6493
LeftUpLeg  -7.6347 -4.16233 7.63269
LeftLeg  12.3413 -21.295 -2.34451
LeftFoot  -10.274 0.114678 -5.70259
LeftToes  5.08156e-010 -6.90346e-011 -6.33378e-011
1919
root  47.0936 39.8777 -19.9044 5.22894 -52.22 -2.30127
RightUpLeg  -6.87662 -3.53002 -1.01148
RightLeg  12.9179 -3.16368 -0.871659
RightFoot  -9.22837 -0.149573 4.70746
RightToes  1.218e-010 1.26228e-014 -6.01869e-014
Spine  -7.10248 3.21712 8.50083
Spine1  8.22635 4.66956 -7.33085
HEad  1.07054 3.14656 4.97776
LeftShoulder1  1.8501 -3.82303 -19.7325
LeftArm  -0.641811 7.74365 -48.6766
LeftForeArm  39.5262 2.16403 -13.1542
LeftHand  -0.00481811 5.95408 4.59126
RightShoulder  0.200765 3.37939 -6.26057
RightArm  -80.985 69.8706 6.01527
RightForeArm  49.1922 51.0127 10.0725
RightHand  0.384165 -6.55193 -36.4656
LeftUpLeg  -7.9675 -4.02235 7.52791
LeftLeg  12.1831 -21.8197 -2.30218
LeftFoot  -10.2921 0.114439 -5.76296
LeftToes  5.08156e-010 -6.90346e-011 -6.33378e-011
